<svg width="21" height="20" viewBox="0 0 21 20" fill="none" xmlns="http://www.w3.org/2000/svg">
<path fill-rule="evenodd" clip-rule="evenodd" d="M15.6798 2.41C15.6798 1.08 16.7598 0 18.0898 0C19.4198 0 20.4998 1.08 20.4998 2.41C20.4998 3.74 19.4198 4.82 18.0898 4.82C16.7598 4.82 15.6798 3.74 15.6798 2.41ZM11.8297 12.7593L14.7197 9.0303L14.6797 9.0503C14.8397 8.8303 14.8697 8.5503 14.7597 8.3003C14.6507 8.0503 14.4097 7.8803 14.1507 7.8603C13.8797 7.8303 13.6107 7.9503 13.4497 8.1703L11.0307 11.3003L8.25974 9.1203C8.08974 8.9903 7.88974 8.9393 7.68974 8.9603C7.49074 8.9903 7.31074 9.0993 7.18974 9.2593L4.23074 13.1103L4.16974 13.2003C3.99974 13.5193 4.07974 13.9293 4.37974 14.1503C4.51974 14.2403 4.66974 14.3003 4.83974 14.3003C5.07074 14.3103 5.28974 14.1893 5.42974 14.0003L7.93974 10.7693L10.7897 12.9103L10.8797 12.9693C11.1997 13.1393 11.5997 13.0603 11.8297 12.7593ZM13.9497 1.7803C13.9097 2.0303 13.8897 2.2803 13.8897 2.5303C13.8897 4.7803 15.7097 6.5993 17.9497 6.5993C18.1997 6.5993 18.4397 6.5703 18.6897 6.5303V14.5993C18.6897 17.9903 16.6897 20.0003 13.2897 20.0003H5.90074C2.49974 20.0003 0.499743 17.9903 0.499743 14.5993V7.2003C0.499743 3.8003 2.49974 1.7803 5.90074 1.7803H13.9497Z" fill="currentColor"/>
</svg>
