<svg width="19" height="16" viewBox="0 0 19 16" fill="none" xmlns="http://www.w3.org/2000/svg">
<path fill-rule="evenodd" clip-rule="evenodd" d="M4.09281 3.07805C2.00901 4.77099 0.239474 6.20892 0.160522 6.27346L0.0169572 6.39083H9.50847H19L18.9916 5.17887C18.9834 3.98939 18.9824 3.96462 18.9403 3.8427C18.8847 3.68182 18.8296 3.59548 18.7103 3.4828C18.5968 3.37566 18.4729 3.3082 18.2756 3.24622L18.1334 3.20153L13.0124 3.19635L7.89145 3.19114L7.88649 1.59556L7.88153 0L4.09281 3.07805ZM0.00819759 10.8216C0.0162014 12.0036 0.0174417 12.0368 0.0587978 12.1644C0.153545 12.457 0.37174 12.6456 0.750516 12.7625C0.860786 12.7966 1.10154 12.7985 5.98705 12.8038L11.108 12.8093L11.113 14.4047L11.1179 16L14.8098 13.0008C16.8403 11.3513 18.6095 9.91341 18.7415 9.80562L18.9814 9.60962H9.4907H0L0.00819759 10.8216Z" fill="currentColor"/>
</svg>
