<svg width="9" height="5" viewBox="0 0 9 5" fill="none" xmlns="http://www.w3.org/2000/svg">
<path d="M1.15487 0.193507C1.02767 0.0695518 0.855773 0 0.676619 0C0.497466 0 0.325569 0.0695518 0.198369 0.193507C0.135542 0.254295 0.0856496 0.326754 0.0515939 0.406666C0.0175382 0.486579 0 0.572348 0 0.658983C0 0.745618 0.0175382 0.831388 0.0515939 0.9113C0.0856496 0.991213 0.135542 1.06367 0.198369 1.12446L4.02137 4.80703C4.14889 4.93067 4.32084 5 4.5 5C4.67916 5 4.85111 4.93067 4.97862 4.80703L8.80163 1.12446C8.86446 1.06367 8.91435 0.991213 8.94841 0.9113C8.98246 0.831388 9 0.745618 9 0.658983C9 0.572348 8.98246 0.486579 8.94841 0.406666C8.91435 0.326754 8.86446 0.254295 8.80163 0.193507C8.67411 0.0698611 8.50216 0.000534278 8.32301 0.000534278C8.14385 0.000534278 7.9719 0.0698611 7.84438 0.193507L4.49813 3.211L1.15487 0.193507Z" fill="currentColor"/>
</svg>
