<svg width="25" height="24" viewBox="0 0 25 24" fill="none" xmlns="http://www.w3.org/2000/svg">
<path fill-rule="evenodd" clip-rule="evenodd" d="M11.7897 1.3062C11.3779 1.50465 11.0157 1.80455 10.7787 2.1431C10.3905 2.69762 10.1102 3.71096 10.2222 4.15429C10.2782 4.37602 10.086 4.53608 8.96312 5.20294L7.63798 5.98994L7.01244 5.66726C5.26167 4.76434 3.24436 5.88016 3.01565 7.87792C2.88721 9.00078 3.56467 10.3356 4.45687 10.7182L4.82836 10.8775V12.5097V14.1419L4.45687 14.3012C3.56467 14.6838 2.88721 16.0186 3.01565 17.1415C3.24436 19.1393 5.26167 20.2551 7.01244 19.3522L7.63798 19.0295L8.93864 19.8019L10.2393 20.5743L10.2902 21.4014C10.3559 22.4698 10.7956 23.1587 11.7366 23.6676C13.3659 24.5483 15.3062 23.6018 15.6925 21.7377C15.7621 21.4017 15.7899 21.0115 15.7544 20.8706C15.7002 20.6563 15.9056 20.4851 17.0131 19.8219L18.3365 19.0291L18.9624 19.3519C21.1363 20.4731 23.5312 18.4441 22.8791 16.0336C22.6956 15.3555 22.0468 14.5278 21.5227 14.3031L21.1468 14.1419V12.5028C21.1468 10.9746 21.1637 10.8582 21.3947 10.7822C22.142 10.5368 22.9975 9.20677 23 8.28658C23.0059 6.08245 20.8543 4.6918 18.9542 5.67174L18.3203 5.99864L17.0279 5.21842L15.7355 4.43821L15.6848 3.61461C15.6193 2.54984 15.1785 1.86008 14.2386 1.35188C13.3984 0.897668 12.6658 0.883978 11.7897 1.3062ZM12.1346 6.62417C12.1958 6.62417 12.2458 7.3376 12.2458 8.20969C12.2458 9.79098 12.2451 9.79533 11.939 9.87478C11.4826 9.99339 10.7541 10.7107 10.4984 11.2931C10.3638 11.5999 10.2713 12.1146 10.2682 12.5737L10.2632 13.3414L9.01393 14.0625L7.76482 14.7836L7.32546 14.4751C7.0839 14.3053 6.75703 14.133 6.59904 14.0919C6.31903 14.0192 6.31186 13.9798 6.31235 12.5279L6.31273 11.0383L6.8699 10.8012C7.95681 10.3386 8.64614 9.06782 8.50051 7.79514L8.43029 7.18087L9.61623 6.47716L10.802 5.77358L11.4127 6.19888C11.7486 6.43276 12.0735 6.62417 12.1346 6.62417ZM16.9014 6.79319L17.5392 7.18189L17.4751 7.83058C17.4397 8.18742 17.4718 8.71277 17.5463 8.99797C17.731 9.70474 18.4306 10.514 19.1053 10.8012L19.6625 11.0383L19.6628 12.5279C19.6633 13.9798 19.6562 14.0192 19.3762 14.0919C19.2182 14.133 18.8854 14.3095 18.6364 14.4843L18.1839 14.8021L16.9766 14.0663L15.7692 13.3305L15.7049 12.4402C15.6141 11.1841 15.1462 10.4283 14.1311 9.89807L13.7293 9.68836V8.17181V6.65526L14.0708 6.50876C14.2586 6.42829 14.5785 6.22396 14.7816 6.05455L15.151 5.74671L15.7073 6.07554C16.0133 6.25645 16.5507 6.57939 16.9014 6.79319ZM11.203 14.6981C11.3731 14.9829 12.3203 15.319 12.9606 15.3217C13.6325 15.3247 14.3624 15.0822 14.7364 14.7318C14.9312 14.5493 15.0531 14.5937 16.1936 15.262L17.4381 15.9913L17.4398 16.6494C17.4407 17.0115 17.4711 17.4229 17.5073 17.5636C17.5622 17.7769 17.3718 17.9407 16.3626 18.5479C15.1708 19.2649 15.1481 19.2725 14.9043 19.0356C14.4941 18.6372 13.5788 18.2729 12.9876 18.2729C12.3964 18.2729 11.4811 18.6372 11.0709 19.0356C10.8271 19.2725 10.8048 19.265 9.63662 18.5609L8.44995 17.8457L8.48531 16.937L8.52066 16.0282L9.73416 15.2926C11.042 14.4998 11.0762 14.486 11.203 14.6981Z" fill="currentColor"/>
</svg>
