<svg width="21" height="18" viewBox="0 0 21 18" fill="none" xmlns="http://www.w3.org/2000/svg">
<path fill-rule="evenodd" clip-rule="evenodd" d="M5.71285 0.277931C5.87903 0.397892 6.14704 0.673447 6.14704 0.673447C7.18746 1.64858 8.75453 4.07394 9.25777 5.30444C9.2683 5.30444 9.56673 6.03608 9.57844 6.38409V6.43041C9.57844 6.96371 9.28 7.46255 8.80017 7.71792C8.60236 7.8232 8.12123 7.92111 7.88911 7.96835C7.81223 7.98399 7.76266 7.99408 7.75975 7.99704C7.07394 8.10156 6.02181 8.17045 4.8667 8.17045C3.65424 8.17045 2.55648 8.10156 1.8812 7.97328C1.8695 7.97328 1.25273 7.84619 1.04676 7.76424C0.749494 7.63715 0.497874 7.40436 0.337539 7.11455C0.222847 6.88294 0.166672 6.63827 0.166672 6.38409C0.177205 6.11685 0.349243 5.618 0.428825 5.42083C0.932065 4.12026 2.57871 1.6367 3.5852 0.685325C3.68975 0.579218 3.80873 0.468061 3.89152 0.390714C3.9357 0.349445 3.96957 0.317802 3.98545 0.301685C4.23707 0.104521 4.54603 0 4.87841 0C5.1745 0 5.47176 0.0926435 5.71285 0.277931ZM16.3953 7.16178C16.3953 7.68558 15.9775 8.10962 15.4614 8.10962C14.9453 8.10962 14.5275 7.68558 14.5275 7.16178L14.27 2.58295C14.27 1.91543 14.8037 1.375 15.4614 1.375C16.1191 1.375 16.6516 1.91543 16.6516 2.58295L16.3953 7.16178ZM19.2866 10.2356C19.5838 10.3639 19.8355 10.5955 19.9958 10.8853C20.1105 11.1169 20.1667 11.3616 20.1667 11.617C20.1561 11.883 19.9841 12.3831 19.9033 12.5802C19.4013 13.8797 17.7535 16.3633 16.7481 17.3158C16.6453 17.4194 16.5286 17.5284 16.446 17.6055L16.4459 17.6055C16.3997 17.6486 16.3643 17.6817 16.3479 17.6983C16.0951 17.8955 15.7873 18 15.4561 18C15.1577 18 14.8604 17.9074 14.6205 17.7209C14.4543 17.6021 14.1863 17.3265 14.1863 17.3265C13.1447 16.3526 11.5788 13.926 11.0756 12.6954C11.0639 12.6954 10.7666 11.965 10.7549 11.617V11.5706C10.7549 11.0361 11.0522 10.5373 11.5332 10.2819C11.7306 10.1777 12.2102 10.0796 12.4428 10.0319L12.4429 10.0319C12.5205 10.016 12.5707 10.0058 12.5736 10.0028C13.2594 9.89827 14.3115 9.82938 15.4666 9.82938C16.6791 9.82938 17.7769 9.89827 18.4521 10.0265C18.4627 10.0265 19.0806 10.1536 19.2866 10.2356ZM4.8722 9.89053C4.35609 9.89053 3.93828 10.3146 3.93828 10.8383L3.68081 15.4171C3.68081 16.0846 4.21448 16.625 4.8722 16.625C5.52993 16.625 6.06242 16.0846 6.06242 15.4171L5.80612 10.8383C5.80612 10.3146 5.38832 9.89053 4.8722 9.89053Z" fill="currentColor"/>
</svg>
