<svg width="18" height="18" viewBox="0 0 18 18" fill="none" xmlns="http://www.w3.org/2000/svg">
<path fill-rule="evenodd" clip-rule="evenodd" d="M3 1.5H15C15.8284 1.5 16.5 2.17157 16.5 3V15C16.5 15.8284 15.8284 16.5 15 16.5H3C2.17157 16.5 1.5 15.8284 1.5 15V3C1.5 2.17157 2.17157 1.5 3 1.5ZM0 3C0 1.34315 1.34315 0 3 0H15C16.6569 0 18 1.34315 18 3V15C18 16.6569 16.6569 18 15 18H3C1.34315 18 0 16.6569 0 15V3ZM14.2474 7.16437C14.6143 6.75159 14.5771 6.11952 14.1644 5.7526C13.7516 5.38568 13.1195 5.42286 12.7526 5.83565L9.73388 9.2317L8.89443 7.5528C8.75067 7.26529 8.47748 7.06441 8.16018 7.01292C7.84289 6.96143 7.52019 7.06561 7.29289 7.2929L3.79289 10.7929C3.40237 11.1834 3.40237 11.8166 3.79289 12.2071C4.18342 12.5976 4.81658 12.5976 5.20711 12.2071L7.72605 9.68818L8.60557 11.4472C8.75397 11.744 9.03992 11.9479 9.36888 11.9914C9.69784 12.0349 10.027 11.9124 10.2474 11.6644L14.2474 7.16437Z" fill="currentColor"/>
</svg>
