<svg width="118" height="140" viewBox="0 0 118 140" fill="none" xmlns="http://www.w3.org/2000/svg">
<path fill-rule="evenodd" clip-rule="evenodd" d="M63.293 60.2826C59.742 60.7622 56.8233 61.6342 53.5906 63.1807C44.4464 67.5551 37.9345 75.9197 35.8836 85.9247C35.3217 88.6664 35.1912 93.6804 35.6077 96.5343C36.6271 103.521 39.4083 109.292 44.1718 114.306C49.2746 119.676 55.9902 123.06 63.519 124.054C65.7541 124.349 70.9435 124.192 73.2776 123.759C77.4505 122.985 82.5096 120.85 85.8374 118.459C86.7162 117.827 87.5103 117.311 87.6022 117.311C87.694 117.311 87.8176 117.464 87.8768 117.651C88.0761 118.279 109.164 139.151 109.991 139.538C110.439 139.748 111.346 139.931 112.164 139.976C113.931 140.074 115.019 139.689 116.258 138.529C117.458 137.405 118 136.119 118 134.393C118 132 118.218 132.262 106.298 120.374C100.402 114.494 95.3751 109.558 95.1274 109.406L94.6772 109.128L95.7341 107.111C100.158 98.6725 100.656 88.9149 97.1129 80.0863C93.7937 71.8142 86.7664 65.0031 78.4369 61.9847C73.4984 60.1951 68.2806 59.6087 63.293 60.2826ZM69.6206 64.9923C73.5863 65.3688 76.4723 66.2102 79.9158 67.9939C84.8508 70.5503 89.2243 75.0003 91.7652 80.0513C92.7551 82.0189 93.8889 85.587 94.2505 87.8728C94.6409 90.3398 94.5319 95.4577 94.0417 97.6885C93.2511 101.286 91.9385 104.286 89.4132 108.268C88.0161 110.471 87.8318 110.674 85.6118 112.44C81.8787 115.411 79.6793 116.705 76.3968 117.864C68.2877 120.728 59.4061 119.556 52.0509 114.65C49.8697 113.195 46.2765 109.6 44.8698 107.465C41.6006 102.502 40.2523 98.0548 40.2438 92.2059C40.2371 87.5394 40.9245 84.4214 42.8307 80.4711C47.0363 71.7559 55.3778 65.8924 64.8303 65.0067C67.3176 64.7736 67.317 64.7736 69.6206 64.9923ZM49.2284 75.3907C48.8916 75.4895 48.4292 75.8073 48.2007 76.0969C47.6232 76.8296 47.7653 78.1595 48.4874 78.7814L48.9977 79.2206H65.595H82.1925L82.7696 78.7345C83.5031 78.1166 83.688 77.3213 83.2921 76.4866C82.6835 75.2025 83.7677 75.2802 65.9834 75.2441C56.4487 75.2246 49.5901 75.2847 49.2284 75.3907ZM48.8708 81.8458C48.2415 82.5258 48.203 84.1127 48.798 84.8697L49.1962 85.3766H60.1221H71.0481L71.4651 84.8476C71.8141 84.4047 71.869 84.1335 71.801 83.1837C71.659 81.1982 72.5368 81.3367 60.0916 81.3367H49.3422L48.8708 81.8458Z" fill="#D1FD00"/>
<path d="M2.19639 2.46836C3.24949 1.34125 3.99051 0.848577 5.39606 0.340903C6.38132 -0.0151806 7.4646 -0.0242221 43.7874 0.0167535L81.1649 0.0588834L82.2705 0.577523C84.4609 1.60518 86.3265 3.94387 86.8131 6.27236C86.963 6.98972 87.0262 15.009 87.0262 33.3242V59.3564L84.2877 57.9745C81.1392 56.3857 77.6134 55.1553 74.2702 54.4787C71.3755 53.8929 66.0402 53.6652 63.0114 53.9984C59.5974 54.3737 55.4727 55.4108 52.6274 56.6093C40.179 61.8522 31.4492 72.4422 28.6752 85.6652C28.1869 87.9923 28.1502 88.4935 28.1465 92.8792C28.1427 97.2903 28.1763 97.7526 28.6696 100.093C28.9596 101.469 29.5692 103.698 30.0245 105.047L30.8521 107.5H18.8915C7.45268 107.5 6.87636 107.483 5.67989 107.113C3.31944 106.383 1.52302 104.655 0.504122 102.133L0.0682745 101.055L0.0125458 54.7892C-0.0251199 23.5414 0.0217701 8.02931 0.156675 7.00146C0.406307 5.10177 1.02914 3.71745 2.19639 2.46836Z" fill="#1C1A1C"/>
<path d="M29.9661 40.041H34.8323C34.8323 33.7429 43.4454 33.214 43.4454 25.1851C43.4454 19.8485 38.9199 16.6273 31.9125 16.6273C26.2191 16.6273 21.9855 18.5985 19.3091 22.012L22.8614 24.512C24.8079 22.0601 27.6303 20.7139 31.5719 20.7139C35.9515 20.7139 38.5306 22.8293 38.5306 25.9063C38.5306 31.4352 29.9661 32.4929 29.9661 40.041ZM32.4478 50.9546C34.2483 50.9546 35.5622 49.5603 35.5622 47.8776C35.5622 46.1468 34.2483 44.8007 32.4478 44.8007C30.5987 44.8007 29.2848 46.1468 29.2848 47.8776C29.2848 49.5603 30.5987 50.9546 32.4478 50.9546Z" fill="currentColor"/>
</svg>
