<svg width="5" height="9" viewBox="0 0 5 9" fill="none" xmlns="http://www.w3.org/2000/svg">
<path d="M0.193507 7.84513C0.0695517 7.97233 -3.7407e-08 8.14423 -2.9576e-08 8.32338C-2.17449e-08 8.50253 0.0695518 8.67443 0.193507 8.80163C0.254295 8.86446 0.326754 8.91435 0.406666 8.94841C0.486579 8.98246 0.572348 9 0.658983 9C0.745618 9 0.831388 8.98246 0.9113 8.94841C0.991213 8.91435 1.06367 8.86446 1.12446 8.80163L4.80703 4.97863C4.93067 4.85111 5 4.67916 5 4.5C5 4.32084 4.93067 4.14889 4.80703 4.02137L1.12446 0.198369C1.06367 0.135543 0.991212 0.0856494 0.9113 0.0515937C0.831388 0.017538 0.745618 -3.2592e-08 0.658983 -2.88051e-08C0.572348 -2.50181e-08 0.486578 0.017538 0.406666 0.0515938C0.326753 0.0856495 0.254294 0.135543 0.193506 0.198369C0.0698607 0.325887 0.000533907 0.497836 0.000533915 0.676994C0.000533922 0.856153 0.0698607 1.0281 0.193506 1.15562L3.211 4.50187L0.193507 7.84513Z" fill="#9FC003"/>
</svg>
